<?xml version="1.0" encoding="utf-8"?>
<!-- Generator: Adobe Illustrator 28.0.0, SVG Export Plug-In . SVG Version: 6.00 Build 0)  -->
<svg version="1.1" id="katman_1" xmlns="http://www.w3.org/2000/svg" xmlns:xlink="http://www.w3.org/1999/xlink" x="0px" y="0px"
	 viewBox="0 0 600 450" style="enable-background:new 0 0 600 450;" xml:space="preserve">
<style type="text/css">
	.st0{fill:#FFFFFF;}
</style>
<g>
	<path class="st0" d="M356.6,67.2l101.3,101.3v214.4H242.4L142.2,282.6V67.2H356.6z M359.3,60.3h-224v225.1l104.3,104.3h225.1v-224
		L359.3,60.3z"/>
	<path class="st0" d="M188.8,245.8v12.1H182V225h12.6c3-0.2,5.9,0.8,8.2,2.7c1.6,1.5,2.7,3.5,3.1,5.6s0.2,4.4-0.7,6.4
		s-2.4,3.7-4.3,4.8c-1.9,1.1-4.1,1.6-6.3,1.3H188.8z M188.8,240.6h5.1c0.7,0.1,1.4,0,2-0.2s1.2-0.6,1.7-1.1c0.8-1.1,1.2-2.5,1.2-3.8
		c0-1.4-0.4-2.7-1.2-3.8c-1-0.9-2.3-1.4-3.7-1.4h-5L188.8,240.6z M234.7,257.9l-2.2-7.3h-11.2l-2.2,7.3h-7.3l11.5-32.9h8l11.2,32.9
		H234.7z M222.6,245.3h8.2l-4.1-13.7L222.6,245.3z M252.3,257.9V225h12.6c3-0.2,5.9,0.8,8.2,2.7c1.9,1.9,3,4.6,3,7.3
		c0,1.9-0.6,3.7-1.7,5.2c-1.1,1.6-2.6,2.8-4.4,3.7l8.2,14.2h-7.3l-7.3-12.9h-4.7v12.6h-6.6V257.9z M259.1,240h5
		c0.6,0.1,1.1,0.1,1.7-0.1c0.6-0.1,1.1-0.4,1.5-0.7c0.5-0.3,0.8-0.8,1.1-1.3s0.5-1,0.6-1.6v-1.4c0.2-1.1-0.1-2.3-0.8-3.2
		c-0.7-0.9-1.7-1.5-2.9-1.7h-6v10.1L259.1,240z M295.1,257.9v-27.2h-10.2V225h27.2v5.7h-10.2v27.2H295.1z M329.4,235.1v22.8h-6.3
		V225h7.7l13.4,23.1V225h6.3v32.9h-7.7L329.4,235.1z M363.2,257.9V225h21.7v5.5h-14.6v7.7h11.8v5.5h-11.8v8.8h14.6v5.5h-21.7V257.9z
		 M397.4,257.9V225H410c3-0.2,5.9,0.8,8.2,2.7c1.9,1.9,3,4.6,3,7.3c0,1.9-0.6,3.7-1.6,5.2c-1.1,1.6-2.6,2.8-4.4,3.7l8.2,14.2h-7.3
		l-7.3-12.9h-4.6v12.6h-6.8V257.9z M404.3,240h4.9c1.1,0.2,2.3-0.1,3.2-0.8c0.9-0.7,1.5-1.7,1.7-2.9v-1.4c0.2-1.1-0.1-2.3-0.8-3.2
		c-0.7-0.9-1.7-1.5-2.8-1.7h-6.3L404.3,240z"/>
	<path class="st0" d="M208.5,135.7c-0.1,1.1,0.1,2.3,0.6,3.3c0.3,0.8,0.8,1.9,1.1,2.7c0.1,0.1,0.2,0.3,0.2,0.4c0,0.1,0.1,0.3,0,0.4
		c0,0.5-0.3,0.8-0.8,1.1l-2.5,1.6h-0.8c-0.2,0-0.4,0-0.6-0.1c-0.2-0.1-0.4-0.2-0.5-0.4c-0.5-0.5-1-1-1.4-1.6
		c-0.4-0.7-0.8-1.4-1.1-2.2c-1.3,1.6-3,3-4.9,3.9s-4,1.4-6.1,1.4c-1.3,0.1-2.7-0.1-4-0.6s-2.4-1.2-3.4-2.2c-0.9-1-1.7-2.1-2.1-3.4
		c-0.5-1.3-0.7-2.6-0.6-3.9c0-1.4,0.2-2.9,0.8-4.2s1.4-2.5,2.5-3.5c2.6-2,5.8-3,9.1-3c1.2,0,2.5,0.1,3.7,0.3l4.1,0.8v-2.7
		c0.1-1.1,0.1-2.2-0.2-3.2s-0.8-2-1.5-2.8c-0.8-0.7-1.8-1.2-2.9-1.4c-1-0.3-2.1-0.4-3.2-0.2c-1.4,0.1-2.8,0.2-4.1,0.5
		c-1.4,0.3-2.8,0.8-4.1,1.4c-0.5,0.3-0.8,0.3-1.4,0.6h-0.5c-0.5,0-0.8-0.3-0.8-1.1v-2c0-0.5,0.1-1,0.3-1.4c0.3-0.3,0.7-0.6,1.1-0.8
		c1.4-0.8,3-1.4,4.6-1.6c1.9-0.5,3.8-0.8,5.8-0.8c3.5-0.3,6.9,0.8,9.6,3c1.1,1.2,1.9,2.7,2.4,4.2c0.5,1.6,0.7,3.2,0.6,4.8
		L208.5,135.7z M193.5,141.2c1.2-0.1,2.5-0.2,3.7-0.5c1.4-0.6,2.6-1.4,3.7-2.5c0.7-0.7,1.1-1.6,1.4-2.5c0.2-1.1,0.3-2.2,0.3-3.3
		v-1.7c-2.3-0.5-4.6-0.8-6.9-0.8c-1.9-0.2-3.9,0.3-5.5,1.4c-1.1,1.1-1.7,2.5-1.8,4s0.4,3,1.3,4.2c0.4,0.6,1,1.1,1.7,1.4
		c0.7,0.3,1.4,0.4,2.2,0.2h-0.1V141.2z M223.4,145.4c-0.5,0-1.1,0-1.4-0.3c-0.3-0.4-0.6-0.9-0.8-1.4l-8.8-28.8
		c-0.2-0.4-0.3-0.9-0.3-1.4s0.3-0.8,0.5-0.8h3.7c0.5,0,1.1,0,1.4,0.3c0.4,0.4,0.6,0.9,0.8,1.4l6.3,24.4l5.8-24.4
		c0-0.3,0.1-0.5,0.2-0.8c0.1-0.2,0.3-0.4,0.6-0.6c0.4-0.2,0.9-0.3,1.4-0.3h3c0.5-0.1,1,0,1.4,0.3c0.3,0.4,0.6,0.9,0.8,1.4l5.8,25
		l6.3-25c0-0.3,0.1-0.6,0.2-0.8c0.1-0.2,0.3-0.4,0.6-0.6c0.4-0.2,0.9-0.3,1.4-0.3h3.7c0.5,0,0.8,0.3,0.8,0.6v0.8
		c0,0.3-0.3,0.5-0.3,0.8l-8.8,28.5c0,0.3-0.1,0.6-0.2,0.8c-0.1,0.2-0.4,0.4-0.6,0.6c-0.3,0.5-0.8,0.5-1.4,0.5h-3.3
		c-0.5,0-1.1,0-1.4-0.3c-0.3-0.3-0.5-0.8-0.8-1.4l-5.8-23.9l-5.7,23.9c0,0.3-0.1,0.6-0.2,0.8c-0.1,0.2-0.4,0.4-0.6,0.6
		c-0.3,0.2-0.7,0.3-1.1,0.3h-3.2V145.4z M270.9,146.5c-1.9,0-3.8-0.2-5.7-0.5c-1.5-0.3-3-0.8-4.4-1.4c-0.4-0.2-0.8-0.5-1-0.8
		c-0.2-0.4-0.4-0.9-0.3-1.3v-1.9c0-0.8,0.3-1.1,0.8-1.1h0.5c0.3,0,0.5,0.3,0.8,0.3c1.3,0.6,2.7,1,4.1,1.4c1.4,0.3,2.9,0.5,4.4,0.5
		c1.9,0.1,3.8-0.4,5.5-1.4c0.6-0.4,1.1-1,1.4-1.6s0.5-1.3,0.5-2.1c0.1-0.5,0-1-0.2-1.4s-0.5-0.8-0.9-1.1c-1.1-0.9-2.3-1.6-3.7-1.9
		l-5.5-1.6c-2.3-0.6-4.4-1.9-6-3.7c-1.2-1.6-1.9-3.5-1.9-5.5c0-1.5,0.4-2.9,1.1-4.1c1.5-2.4,3.9-4.1,6.6-4.9
		c1.5-0.5,3.1-0.7,4.6-0.6c0.8,0,1.7,0.1,2.5,0.3c0.8,0.1,1.7,0.2,2.5,0.5s1.4,0.3,2.2,0.5c0.8,0.3,1.1,0.3,1.6,0.5
		c0.4,0.2,0.8,0.5,1.1,0.8c0.2,0.4,0.3,0.9,0.3,1.4v1.6c0,0.8-0.3,1.1-0.8,1.1s-1-0.2-1.4-0.5c-2.3-1-4.8-1.5-7.3-1.4
		c-1.7,0-3.4,0.3-4.9,1.1c-0.6,0.3-1.1,0.8-1.4,1.4s-0.4,1.3-0.3,1.9c0,0.5,0,1,0.2,1.5s0.5,0.9,0.9,1.2c1.1,1.1,2.6,1.7,4.1,1.9
		l5.2,1.6c2.2,0.7,4.2,1.9,5.7,3.7c1.1,1.5,1.7,3.4,1.6,5.2c0,1.5-0.3,3.1-1.1,4.4c-0.6,1.3-1.6,2.5-2.7,3.3
		c-1.3,0.9-2.7,1.6-4.1,2.2c-1.5,0.4-3.1,0.5-4.7,0.5v0H270.9z"/>
	<path class="st0" d="M278.1,164.3c-13.4,9-29.2,13.8-45.3,13.7c-20.4,0-40-7.5-55.2-21.2c-1.1-1.1,0-2.5,1.4-1.6
		c16.7,9.8,35.8,14.9,55.2,14.8c14.5-0.1,28.9-2.9,42.3-8.5C278.3,160.7,280.1,162.9,278.1,164.3z M280,172.6
		c-0.5,1.1,0.6,1.6,1.7,0.8c6.6-5.5,8.2-17,6.8-18.7c-1.4-1.6-12.9-3-19.8,1.9c-1.1,0.8-0.8,1.9,0.3,1.6c3.7-0.5,12.7-1.6,14.3,0.6
		C284.9,161.1,281.4,169,280,172.6z"/>
</g>
</svg>
