<?xml version="1.0" encoding="UTF-8"?><svg id="Layer_1" xmlns="http://www.w3.org/2000/svg" viewBox="0 0 324.87 242.57"><defs><style>.cls-1{fill:#fff;stroke-width:0px;}</style></defs><path id="Reg" class="cls-1" d="m318.66,236.93v-1.33h.85c.47,0,1.1.03,1.1.6,0,.61-.33.72-.87.72h-1.08m0,.93h.57l1.32,2.32h1.45l-1.46-2.42c.76-.06,1.38-.41,1.38-1.43,0-1.27-.87-1.67-2.35-1.67h-2.14v5.52h1.23v-2.32m6.21-.43c0-3.24-2.52-5.12-5.33-5.12s-5.35,1.88-5.35,5.12,2.52,5.13,5.35,5.13,5.33-1.89,5.33-5.13m-1.54,0c0,2.36-1.74,3.95-3.79,3.95v-.02c-2.11.02-3.82-1.57-3.82-3.93s1.71-3.94,3.82-3.94,3.79,1.58,3.79,3.94Z"/><path id="NVIDIA" class="cls-1" d="m129.32,182.54v58.21h16.44v-58.21h-16.44Zm-129.32-.08v58.29h16.59v-44.26h12.85c4.26,0,7.29,1.06,9.34,3.25,2.6,2.77,3.66,7.24,3.66,15.41v25.59h16.07v-32.2c0-22.99-14.65-26.08-28.98-26.08H0Zm155.79.08v58.21h26.66c14.21,0,18.84-2.36,23.86-7.66,3.54-3.72,5.84-11.88,5.84-20.8,0-8.18-1.94-15.48-5.32-20.03-6.09-8.13-14.86-9.72-27.96-9.72h-23.07Zm16.31,12.67h7.07c10.25,0,16.89,4.61,16.89,16.55s-6.63,16.56-16.89,16.56h-7.07v-33.11Zm-66.48-12.67l-13.72,46.13-13.15-46.13h-17.75s18.78,58.21,18.78,58.21h23.69l18.92-58.21h-16.78Zm114.18,58.21h16.44v-58.21h-16.45s0,58.21,0,58.21Zm46.08-58.19l-22.96,58.17h16.21l3.63-10.28h27.17l3.44,10.28h17.6l-23.13-58.17h-21.96Zm10.67,10.61l9.96,27.25h-20.23l10.27-27.25Z"/><path id="Eye_Mark" class="cls-1" d="m107.59,46.19v-13.98c1.36-.1,2.73-.17,4.13-.21,38.25-1.2,63.34,32.86,63.34,32.86,0,0-27.1,37.64-56.16,37.64-4.19,0-7.93-.67-11.31-1.81v-42.4c14.89,1.8,17.88,8.38,26.84,23.3l19.91-16.79s-14.53-19.06-39.03-19.06c-2.67,0-5.21.19-7.71.46m0-46.19v20.89c1.37-.11,2.75-.2,4.13-.25,53.19-1.79,87.84,43.62,87.84,43.62,0,0-39.8,48.4-81.27,48.4-3.8,0-7.36-.35-10.7-.94v12.91c2.86.36,5.82.58,8.91.58,38.59,0,66.49-19.7,93.52-43.03,4.48,3.59,22.82,12.31,26.59,16.14-25.7,21.51-85.57,38.84-119.51,38.84-3.27,0-6.42-.2-9.5-.49v18.15h146.66V0H107.59Zm0,100.69v11.02c-35.69-6.36-45.59-43.46-45.59-43.46,0,0,17.13-18.99,45.59-22.06v12.09s-.04,0-.06,0c-14.93-1.79-26.6,12.16-26.6,12.16,0,0,6.54,23.49,26.66,30.25m-63.39-34.05s21.15-31.21,63.39-34.44v-11.32c-46.78,3.75-87.29,43.37-87.29,43.37,0,0,22.94,66.33,87.29,72.4v-12.04c-47.22-5.94-63.39-57.98-63.39-57.98Z"/></svg>