<?xml version="1.0" encoding="utf-8"?>
<!-- Generator: Adobe Illustrator 28.0.0, SVG Export Plug-In . SVG Version: 6.00 Build 0)  -->
<svg version="1.1" id="Layer_1" xmlns="http://www.w3.org/2000/svg" xmlns:xlink="http://www.w3.org/1999/xlink" x="0px" y="0px"
	 viewBox="0 0 536.01 113.39" style="enable-background:new 0 0 536.01 113.39;" xml:space="preserve">
<style type="text/css">
	.st0{fill:#1C4DA1;}
</style>
<g>
	<path class="st0" d="M213.4,21.51c-1.72-1.79-2.57-4-2.57-6.65s0.86-4.87,2.57-6.65c1.72-1.79,3.97-2.68,6.76-2.68
		c2.79,0,5.04,0.85,6.76,2.54c1.72,1.7,2.57,3.87,2.57,6.51c0,2.77-0.86,5.07-2.57,6.89c-1.72,1.82-3.97,2.73-6.76,2.73
		C217.37,24.19,215.11,23.3,213.4,21.51z M209.51,27.65h21.28v60.71h-21.28V27.65z"/>
	<path class="st0" d="M253.72,85.34c-5.23-2.69-9.32-6.42-12.26-11.2c-2.95-4.78-4.42-10.19-4.42-16.24
		c0-5.97,1.47-11.35,4.42-16.13c2.95-4.78,7.02-8.49,12.21-11.14c5.19-2.65,11.07-3.98,17.64-3.98c6.57,0,12.47,1.33,17.7,3.98
		c5.23,2.65,9.3,6.35,12.21,11.09c2.91,4.74,4.37,10.14,4.37,16.19c0,6.05-1.46,11.46-4.37,16.24c-2.91,4.78-6.98,8.51-12.21,11.2
		c-5.23,2.69-11.13,4.03-17.7,4.03C264.81,89.37,258.94,88.03,253.72,85.34z M280.49,68.59c2.39-2.58,3.58-6.14,3.58-10.7
		c0-4.48-1.2-7.99-3.58-10.53c-2.39-2.54-5.45-3.81-9.18-3.81c-3.73,0-6.8,1.27-9.18,3.81c-2.39,2.54-3.58,6.05-3.58,10.53
		c0,4.56,1.19,8.12,3.58,10.7c2.39,2.58,5.45,3.86,9.18,3.86C275.04,72.46,278.1,71.17,280.49,68.59z"/>
	<path class="st0" d="M366.17,72.27h-33.15l-6.16,16.09h-22.63l34.61-82.84h21.84l34.72,82.84h-23.07L366.17,72.27z M359.03,53.28
		l-8.25-21.7c-0.41-1.08-1.94-1.08-2.36,0l-8.25,21.7c-0.31,0.83,0.3,1.71,1.18,1.71h16.5C358.73,54.99,359.34,54.11,359.03,53.28z"
		/>
	<path class="st0" d="M461.68,27.65v49.62c0,11.28-3.06,19.73-9.18,25.37c-6.13,5.64-14.94,8.46-26.43,8.46
		c-5.98,0-11.58-0.67-16.8-2.02c-5.23-1.34-9.67-3.32-13.33-5.94l7.73-14.9c2.46,2.01,5.58,3.6,9.35,4.76
		c3.77,1.16,7.49,1.74,11.15,1.74c5.6,0,9.71-1.23,12.32-3.7c2.61-2.46,3.92-6.12,3.92-10.98v-2.01
		c-4.11,4.78-10.12,7.17-18.03,7.17c-5.38,0-10.34-1.21-14.9-3.64c-4.56-2.43-8.18-5.86-10.87-10.31c-2.69-4.44-4.03-9.58-4.03-15.4
		c0-5.75,1.34-10.85,4.03-15.29c2.69-4.44,6.31-7.88,10.87-10.31c4.55-2.42,9.52-3.64,14.9-3.64c8.66,0,15.01,2.8,19.04,8.4v-7.39
		H461.68z M433.14,64.84c2.5-2.32,3.75-5.3,3.75-8.96c0-3.66-1.23-6.62-3.7-8.9c-2.46-2.28-5.64-3.42-9.52-3.42
		c-3.88,0-7.08,1.14-9.58,3.42c-2.5,2.28-3.75,5.25-3.75,8.9c0,3.66,1.27,6.65,3.81,8.96c2.54,2.32,5.71,3.47,9.52,3.47
		C427.48,68.31,430.63,67.15,433.14,64.84z"/>
	<path class="st0" d="M533.33,63.38H489.2c0.9,3.14,2.63,5.54,5.21,7.22c2.58,1.68,5.8,2.52,9.69,2.52c2.91,0,5.43-0.41,7.56-1.23
		c2.13-0.82,4.27-2.16,6.44-4.03l11.2,11.65c-5.9,6.57-14.52,9.86-25.87,9.86c-7.1,0-13.33-1.34-18.71-4.03
		c-5.38-2.69-9.54-6.42-12.49-11.2c-2.95-4.78-4.42-10.19-4.42-16.24c0-5.97,1.44-11.33,4.31-16.07s6.85-8.46,11.93-11.15
		c5.08-2.69,10.79-4.03,17.14-4.03c6.05,0,11.54,1.25,16.47,3.75c4.93,2.5,8.83,6.12,11.7,10.86c2.87,4.74,4.31,10.36,4.31,16.86
		C533.66,58.27,533.55,60.02,533.33,63.38z M493.06,44.57c-1.8,1.53-3.07,3.51-3.8,5.94c-0.25,0.83,0.33,1.68,1.2,1.68l21.66,0
		c0.87,0,1.45-0.85,1.2-1.68c-0.73-2.43-1.99-4.41-3.8-5.94c-2.2-1.86-4.95-2.8-8.23-2.8S495.26,42.7,493.06,44.57z"/>
	<path class="st0" d="M198.91,52.92c-2.54-3.51-6.05-6.09-10.53-7.75c3.36-1.81,5.95-4.28,7.78-7.4c1.83-3.11,2.74-6.65,2.74-10.59
		c0-6.63-2.62-11.89-7.84-15.8c-5.23-3.9-12.84-5.86-22.85-5.86h-40.1v40c0,0,9.35,9.46,21.64-22.26c0.19-0.48,0.66-0.82,1.18-0.82
		l14.37,0c7.47,0,11.2,2.64,11.2,7.93c0,5.37-3.74,8.05-11.2,8.05l-12.14,0c-0.52,0-0.98,0.33-1.17,0.82
		c-4.04,10.58-12.11,15.32-18.49,16.81c-1.83,0.43-3.67,0.16-5.38-0.43v32.73h42.34c10.45,0,18.44-1.97,23.97-5.92
		c5.52-3.94,8.29-9.55,8.29-16.8C202.72,60.67,201.45,56.43,198.91,52.92z M168.67,71.44h-17.33c-0.7,0-1.26-0.56-1.26-1.26V55.9
		c0-0.7,0.56-1.26,1.26-1.26h17.33c7.77,0,11.65,2.8,11.65,8.4C180.32,68.64,176.43,71.44,168.67,71.44z"/>
	<path class="st0" d="M95.94,59.02c-0.05,0.22-5.4,21.83-7.46,29.64c-0.52,1.95-1.88,7.09-6.53,7.09c-0.06,0-0.11,0-0.17,0
		c-2.24-0.06-5.18-1.38-6.42-7.34c-0.33-2.32-5.46-38.66-8.54-61c-2.43,9.03-5.1,19.32-5.76,23.33c-0.41,2.45-1.36,8.2-6.11,9
		c-2.56,0.4-5.09-0.94-6.48-3.48l-0.9-1.64c-0.35,1.08-0.76,2.39-1.21,3.99c-1.25,4.42-3.42,6.95-6.46,7.51
		c-3.02,0.57-5.23-1.19-6.81-2.86l0,0c-0.01,0-1.52-1.68-4.79-5.06c-1.85-1.91-5.34-1.77-5.34-1.77H2.34v-9.67h20.41
		c2.07,0,7.68-0.18,12.44,4.66c0.95,0.97,1.77,1.82,2.45,2.53c1.3-4.33,2.24-6.56,2.69-7.51c0.86-2.52,2.82-5.16,5.97-5.51
		c1.72-0.19,4.09,0.25,6.28,3.08c2.73-11.79,9-34.11,9.31-35.22c1.44-4.65,3.74-6.79,6.91-6.48c4.62,0.44,5.19,5.57,5.37,7.25
		c0.52,4.65,5.64,41.21,8.6,62.3c1.8-7.2,3.55-14.24,3.87-15.54c0.76-3.36,2.6-7.79,7.82-9.36c2.56-0.77,4.39-2.24,6.32-5.08
		c2.27-3.34,3.56-5.44,3.59-5.49c0.32-0.62,2.87-4.94,7.36-4.94c0.01,0,0.02,0,0.03,0c2.03,0.01,3.63,0.3,6.5,4.03
		c3.47,4.51,5.1,5.45,9.84,10.02l0,10.11c-4.43-1.52-7.97-5.26-7.97-5.26s-6.99-7.3-7.44-7.92c-0.62-0.85-0.98-0.19-0.98-0.19
		c-0.66,1.02-1.81,3.37-2.95,5.05c-3.17,4.66-6.78,7.48-11.53,8.9C96.59,56.43,95.94,59.02,95.94,59.02z M40.52,57.08
		c0.06,0.07,0.1,0.12,0.11,0.13C40.59,57.16,40.56,57.12,40.52,57.08z M56.94,51.59l0.01,0.01C56.95,51.6,56.94,51.59,56.94,51.59z"
		/>
</g>
</svg>
