<svg xmlns="http://www.w3.org/2000/svg" version="1.1" viewBox="0.00 0.00 2234.00 474.00">
<path fill="#1d4ca1" d="
  M 345.26 298.32
  A 0.24 0.24 0.0 0 0 345.73 298.34
  Q 353.12 267.84 360.83 237.69
  Q 364.29 224.15 367.09 218.76
  Q 375.50 202.54 393.49 196.36
  Q 399.97 194.13 402.13 192.91
  Q 411.16 187.81 417.28 179.27
  Q 425.68 167.57 430.04 160.51
  C 438.92 146.13 446.52 133.13 464.84 131.80
  C 474.37 131.10 482.65 135.27 488.44 142.56
  Q 495.36 151.28 501.51 158.35
  C 511.03 169.31 522.82 179.57 533.82 189.68
  Q 534.25 190.07 534.25 189.49
  L 534.25 24.27
  Q 534.25 23.77 534.74 23.77
  Q 623.17 23.70 711.48 23.77
  Q 722.57 23.78 739.50 26.24
  C 790.03 33.58 833.33 64.16 829.16 120.85
  C 827.01 150.13 812.16 174.07 786.33 188.62
  Q 785.74 188.96 786.37 189.19
  C 828.93 205.25 849.69 242.60 844.53 287.25
  C 838.58 338.79 792.63 361.35 746.65 366.84
  Q 730.78 368.73 717.75 368.76
  Q 626.10 369.01 534.55 369.04
  A 0.30 0.30 0.0 0 1 534.25 368.74
  L 534.25 233.25
  Q 534.25 232.89 533.91 232.76
  C 518.26 226.54 507.82 217.92 495.50 205.12
  Q 481.86 190.93 468.74 176.61
  A 1.67 1.67 0.0 0 0 466.04 176.94
  Q 460.91 186.25 455.52 195.09
  C 444.01 213.99 427.58 228.77 405.69 235.09
  A 1.47 1.44 9.4 0 0 404.92 235.63
  Q 402.07 239.53 401.21 243.00
  Q 385.67 306.21 369.47 369.25
  C 365.69 383.97 358.22 401.78 339.30 399.66
  C 322.21 397.75 315.80 379.97 313.77 365.65
  Q 296.20 241.72 278.98 117.26
  Q 278.76 115.68 278.34 117.22
  Q 267.85 155.64 258.35 195.23
  C 255.85 205.66 254.43 221.17 249.19 233.18
  C 240.91 252.16 218.26 256.24 205.08 239.66
  Q 203.53 237.71 198.98 229.29
  Q 198.64 228.65 198.41 229.34
  C 194.68 240.72 192.65 252.29 185.91 262.90
  C 178.23 274.98 163.37 280.55 150.48 274.08
  C 145.80 271.73 141.93 268.37 137.94 264.14
  Q 128.94 254.58 119.94 245.02
  Q 111.56 236.11 98.49 236.09
  Q 54.52 236.00 10.51 235.98
  Q 10.00 235.98 10.00 235.48
  L 10.00 196.03
  Q 10.00 195.52 10.51 195.52
  Q 51.27 195.46 91.99 195.52
  Q 106.16 195.54 111.94 196.52
  Q 132.65 200.06 147.82 215.68
  Q 152.29 220.29 156.88 224.80
  Q 157.21 225.13 157.35 224.68
  Q 161.97 208.88 169.12 192.05
  C 176.12 175.58 190.79 165.29 208.77 174.34
  C 212.71 176.33 216.01 179.76 218.98 183.13
  Q 219.44 183.66 219.61 182.98
  Q 241.10 95.55 259.51 33.06
  Q 261.55 26.13 266.67 19.67
  Q 270.93 14.31 275.43 12.18
  C 282.15 9.00 291.17 9.60 297.38 13.78
  C 304.71 18.71 307.79 27.80 308.96 36.51
  Q 326.57 167.58 345.26 298.32
  Z
  M 633.50 164.36
  C 634.16 162.62 636.01 160.75 638.00 160.75
  Q 665.25 160.77 692.50 160.64
  C 707.97 160.57 727.85 156.08 733.69 139.94
  C 738.71 126.07 735.23 108.16 721.20 100.78
  C 711.04 95.43 701.05 94.60 688.16 94.54
  Q 658.89 94.43 629.62 94.53
  C 627.25 94.54 625.25 95.58 624.45 97.72
  C 614.32 124.65 602.38 150.06 585.56 172.28
  Q 576.33 184.48 564.23 191.69
  Q 549.24 200.62 534.68 191.37
  Q 534.32 191.14 534.32 191.57
  L 534.22 231.75
  Q 534.22 232.23 534.67 232.40
  Q 546.00 236.60 555.74 234.45
  C 591.72 226.48 620.47 199.11 633.50 164.36
  Z
  M 732.01 233.28
  Q 720.02 228.66 708.24 228.56
  Q 688.41 228.39 632.69 228.52
  C 628.61 228.53 625.76 229.88 625.75 234.25
  Q 625.74 262.42 625.76 290.59
  C 625.76 294.27 626.50 298.24 630.74 298.24
  Q 665.75 298.29 700.74 298.21
  C 717.80 298.17 741.34 296.26 748.97 277.97
  C 752.89 268.58 752.54 255.37 747.68 246.52
  Q 742.64 237.37 732.01 233.28
  Z"
/>
<path fill="#1d4ca1" d="
  M 927.11 24.52
  C 969.71 33.45 965.14 96.99 922.92 101.39
  C 900.93 103.69 882.56 91.58 879.08 68.98
  C 874.63 40.02 898.53 18.54 927.11 24.52
  Z"
/>
<path fill="#1d4ca1" d="
  M 1388.01 302.21
  L 1362.53 368.79
  A 0.32 0.32 0.0 0 1 1362.23 369.00
  L 1268.33 369.00
  A 0.32 0.32 0.0 0 1 1268.04 368.56
  L 1412.02 23.95
  A 0.32 0.32 0.0 0 1 1412.31 23.75
  L 1503.22 23.75
  A 0.32 0.32 0.0 0 1 1503.51 23.95
  L 1647.96 368.56
  A 0.32 0.32 0.0 0 1 1647.67 369.00
  L 1551.90 369.00
  A 0.32 0.32 0.0 0 1 1551.60 368.79
  L 1526.11 302.21
  A 0.32 0.32 0.0 0 0 1525.81 302.00
  L 1388.31 302.00
  A 0.32 0.32 0.0 0 0 1388.01 302.21
  Z
  M 1417.90 222.81
  A 5.12 5.12 0.0 0 0 1422.68 229.75
  L 1491.44 229.75
  A 5.12 5.12 0.0 0 0 1496.22 222.81
  L 1461.85 132.41
  A 5.12 5.12 0.0 0 0 1452.27 132.41
  L 1417.90 222.81
  Z"
/>
<path fill="#1d4ca1" d="
  M 988.09 236.01
  C 990.80 170.06 1039.50 122.81 1103.51 113.63
  C 1143.51 107.90 1186.37 114.07 1220.19 137.38
  C 1259.68 164.60 1277.42 207.92 1273.10 255.87
  C 1268.96 301.94 1241.20 339.93 1199.26 359.04
  C 1166.47 373.97 1128.76 376.67 1094.51 369.53
  C 1029.48 355.96 985.31 303.67 988.09 236.01
  Z
  M 1082.68 213.96
  C 1075.03 232.75 1075.72 261.77 1087.06 279.18
  Q 1095.41 292.02 1107.79 297.72
  C 1125.62 305.94 1150.11 303.91 1165.21 290.19
  C 1177.68 278.87 1182.72 264.28 1183.73 247.77
  C 1184.87 229.19 1181.21 210.06 1167.42 196.71
  Q 1152.33 182.11 1130.82 182.29
  C 1109.31 182.48 1090.99 193.53 1082.68 213.96
  Z"
/>
<path fill="#1d4ca1" d="
  M 1834.76 326.93
  C 1816.42 347.53 1791.63 354.97 1764.78 355.92
  C 1737.55 356.88 1709.63 349.68 1687.09 334.12
  C 1647.94 307.11 1630.98 262.68 1637.12 215.36
  C 1645.52 150.58 1701.86 109.15 1765.40 111.73
  C 1794.53 112.92 1820.93 121.42 1839.01 145.67
  Q 1839.50 146.34 1839.50 145.51
  L 1839.50 116.25
  Q 1839.50 115.75 1840.00 115.75
  L 1923.73 115.75
  Q 1924.22 115.75 1924.22 116.25
  Q 1924.33 221.39 1924.19 326.49
  Q 1924.15 354.66 1915.81 380.80
  C 1890.50 460.06 1802.98 470.60 1733.12 460.90
  C 1704.22 456.89 1674.53 447.86 1650.43 430.93
  Q 1649.92 430.57 1650.21 430.02
  L 1681.90 368.95
  Q 1682.26 368.25 1682.87 368.73
  C 1697.07 379.74 1712.89 386.19 1730.38 390.67
  Q 1759.78 398.21 1790.26 393.57
  Q 1795.65 392.74 1804.61 389.06
  C 1830.72 378.32 1836.36 352.33 1835.16 327.08
  Q 1835.13 326.52 1834.76 326.93
  Z
  M 1778.68 183.56
  C 1744.67 177.20 1710.45 195.85 1710.30 233.00
  C 1710.05 297.75 1808.85 303.78 1819.88 243.55
  Q 1821.70 233.64 1820.11 224.45
  C 1816.30 202.44 1800.06 187.56 1778.68 183.56
  Z"
/>
<path fill="#1d4ca1" d="
  M 2039.17 265.46
  C 2048.92 300.38 2085.85 309.18 2117.46 304.04
  C 2133.12 301.50 2146.96 294.21 2158.60 283.64
  A 0.68 0.67 46.5 0 1 2159.54 283.67
  L 2205.65 331.64
  Q 2206.05 332.05 2205.66 332.48
  C 2183.82 356.46 2154.35 368.42 2122.24 371.88
  C 2081.66 376.25 2041.03 370.68 2006.30 348.61
  C 1960.44 319.47 1942.05 266.67 1952.09 214.30
  C 1957.04 188.45 1971.36 163.63 1991.50 146.11
  C 2022.98 118.72 2063.68 108.58 2104.92 112.37
  C 2175.39 118.85 2225.69 171.15 2224.12 243.12
  Q 2224.00 248.60 2222.67 264.58
  Q 2222.64 265.00 2222.22 265.00
  L 2039.52 265.00
  Q 2039.05 265.00 2039.17 265.46
  Z
  M 2041.46 204.97
  C 2039.63 209.12 2037.16 214.44 2041.02 217.02
  Q 2042.49 218.01 2046.18 218.01
  Q 2089.56 218.00 2132.95 218.00
  C 2137.12 218.00 2140.38 215.72 2139.14 211.30
  C 2133.86 192.41 2118.91 179.26 2099.81 175.76
  Q 2085.89 173.21 2072.74 177.00
  Q 2051.00 183.26 2041.46 204.97
  Z"
/>
<rect fill="#1d4ca1" x="873.25" y="115.76" width="89.00" height="253.24" rx="0.31"/>
</svg>
