<svg version="1.1" id="Layer_1" xmlns="http://www.w3.org/2000/svg" xmlns:xlink="http://www.w3.org/1999/xlink" x="0px" y="0px"
	 viewBox="0 0 536.01 113.39" style="enable-background:new 0 0 536.01 113.39;" xml:space="preserve">
<style type="text/css">
	.st0{fill:#1C4DA1;}
</style>
<g>
	<path class="st0" d="M213.33,21.47c-1.72-1.79-2.58-4.01-2.58-6.66s0.86-4.87,2.58-6.66c1.72-1.79,3.97-2.68,6.77-2.68
		c2.79,0,5.05,0.85,6.77,2.54c1.72,1.7,2.58,3.87,2.58,6.52c0,2.78-0.86,5.07-2.58,6.89c-1.72,1.82-3.97,2.73-6.77,2.73
		C217.31,24.16,215.05,23.26,213.33,21.47z M209.45,27.62h21.31V88.4h-21.31V27.62z"/>
	<path class="st0" d="M253.7,85.37c-5.23-2.69-9.33-6.43-12.28-11.21c-2.95-4.78-4.43-10.2-4.43-16.26c0-5.98,1.47-11.36,4.43-16.15
		c2.95-4.78,7.03-8.5,12.22-11.16c5.2-2.65,11.08-3.98,17.66-3.98c6.58,0,12.48,1.33,17.72,3.98c5.23,2.65,9.31,6.36,12.22,11.1
		c2.92,4.75,4.37,10.15,4.37,16.2c0,6.06-1.46,11.48-4.37,16.26c-2.92,4.79-6.99,8.52-12.22,11.21c-5.23,2.69-11.14,4.04-17.72,4.04
		C264.8,89.41,258.93,88.06,253.7,85.37z M280.5,68.6c2.39-2.58,3.59-6.15,3.59-10.71c0-4.48-1.2-8-3.59-10.54
		c-2.39-2.54-5.46-3.81-9.2-3.81c-3.74,0-6.8,1.27-9.2,3.81c-2.39,2.54-3.59,6.06-3.59,10.54c0,4.56,1.19,8.13,3.59,10.71
		c2.39,2.58,5.46,3.87,9.2,3.87C275.05,72.47,278.11,71.18,280.5,68.6z"/>
	<path class="st0" d="M366.29,72.28h-33.19l-6.17,16.11h-22.65l34.65-82.93h21.87l34.76,82.93h-23.1L366.29,72.28z M359.13,53.28
		l-8.26-21.73c-0.41-1.08-1.95-1.08-2.36,0l-8.26,21.73c-0.31,0.83,0.3,1.71,1.18,1.71h16.52C358.84,54.99,359.45,54.1,359.13,53.28
		z"/>
	<path class="st0" d="M461.9,27.62v49.68c0,11.29-3.07,19.75-9.2,25.4c-6.13,5.64-14.95,8.47-26.46,8.47
		c-5.98,0-11.59-0.67-16.82-2.02c-5.23-1.35-9.68-3.33-13.34-5.94l7.74-14.91c2.47,2.02,5.59,3.6,9.36,4.77
		c3.77,1.16,7.49,1.74,11.16,1.74c5.61,0,9.72-1.23,12.34-3.7c2.62-2.47,3.92-6.13,3.92-10.99v-2.02
		c-4.11,4.78-10.13,7.18-18.05,7.18c-5.38,0-10.36-1.22-14.91-3.64c-4.56-2.43-8.19-5.87-10.88-10.32
		c-2.69-4.45-4.04-9.59-4.04-15.42c0-5.75,1.35-10.86,4.04-15.31c2.69-4.45,6.32-7.89,10.88-10.32c4.56-2.43,9.53-3.64,14.91-3.64
		c8.67,0,15.03,2.8,19.06,8.41v-7.4H461.9z M433.33,64.85c2.5-2.32,3.76-5.31,3.76-8.97c0-3.66-1.23-6.63-3.7-8.91
		c-2.47-2.28-5.65-3.42-9.53-3.42c-3.89,0-7.08,1.14-9.59,3.42c-2.51,2.28-3.76,5.25-3.76,8.91c0,3.66,1.27,6.65,3.81,8.97
		c2.54,2.32,5.72,3.48,9.53,3.48C427.66,68.32,430.82,67.17,433.33,64.85z"/>
	<path class="st0" d="M533.63,63.39h-44.18c0.9,3.14,2.64,5.55,5.21,7.23c2.58,1.68,5.81,2.52,9.7,2.52c2.92,0,5.44-0.41,7.57-1.23
		c2.13-0.82,4.28-2.17,6.45-4.04l11.21,11.66c-5.91,6.58-14.54,9.87-25.9,9.87c-7.1,0-13.35-1.35-18.73-4.04
		c-5.38-2.69-9.55-6.43-12.5-11.21c-2.95-4.78-4.43-10.2-4.43-16.26c0-5.98,1.44-11.34,4.32-16.09s6.86-8.47,11.94-11.16
		c5.08-2.69,10.8-4.04,17.16-4.04c6.06,0,11.55,1.25,16.48,3.76c4.93,2.51,8.84,6.13,11.72,10.88c2.88,4.75,4.32,10.37,4.32,16.88
		C533.97,58.27,533.86,60.03,533.63,63.39z M493.32,44.55c-1.81,1.53-3.07,3.51-3.8,5.94c-0.25,0.83,0.33,1.68,1.2,1.68l21.69,0
		c0.87,0,1.45-0.85,1.2-1.68c-0.73-2.43-2-4.41-3.8-5.94c-2.2-1.87-4.95-2.8-8.24-2.8C498.27,41.75,495.52,42.68,493.32,44.55z"/>
	<path class="st0" d="M521.29,6.7h2.4V5.47h-6.32V6.7h2.4v6.6h1.52V6.7z M533.97,13.31V5.47h-2.19l-2.13,5.56l-2.15-5.56h-2.21v7.84
		h1.43V7.18h0.04l2.34,6.13h1.07l2.34-6.13h0.04v6.13H533.97z"/>
	<path class="st0" d="M198.83,52.91c-2.54-3.51-6.06-6.1-10.54-7.76c3.36-1.81,5.96-4.28,7.79-7.4c1.83-3.12,2.75-6.65,2.75-10.6
		c0-6.64-2.62-11.91-7.85-15.82c-5.23-3.91-12.86-5.86-22.88-5.86h-40.15v40.05c0,0,9.36,9.47,21.66-22.29
		c0.19-0.48,0.66-0.82,1.18-0.82l14.39,0c7.47,0,11.21,2.65,11.21,7.94c0,5.37-3.74,8.06-11.21,8.06l-12.16,0
		c-0.52,0-0.98,0.33-1.17,0.82c-4.05,10.59-12.12,15.34-18.51,16.83c-1.83,0.43-3.67,0.16-5.39-0.43V88.4h42.39
		c10.47,0,18.46-1.97,24-5.92c5.53-3.95,8.3-9.56,8.3-16.82C202.65,60.67,201.37,56.43,198.83,52.91z M168.56,71.46H151.2
		c-0.7,0-1.26-0.57-1.26-1.26V55.9c0-0.7,0.57-1.26,1.26-1.26h17.35c7.77,0,11.66,2.8,11.66,8.41
		C180.22,68.65,176.33,71.46,168.56,71.46z"/>
	<path class="st0" d="M95.75,59.02c-0.06,0.22-5.4,21.85-7.47,29.67c-0.52,1.95-1.88,7.1-6.54,7.1c-0.06,0-0.12,0-0.17,0
		c-2.25-0.06-5.18-1.38-6.43-7.35c-0.34-2.32-5.47-38.7-8.55-61.07c-2.43,9.04-5.1,19.35-5.77,23.35c-0.41,2.45-1.36,8.21-6.12,9.01
		c-2.56,0.4-5.1-0.94-6.48-3.49l-0.9-1.64c-0.35,1.08-0.76,2.4-1.21,4c-1.25,4.43-3.43,6.96-6.47,7.52
		c-3.02,0.57-5.23-1.2-6.82-2.86l0,0c-0.01,0-1.52-1.68-4.8-5.06c-1.86-1.91-5.34-1.77-5.34-1.77H2.04v-9.68h20.43
		c2.07,0,7.69-0.18,12.45,4.66c0.95,0.97,1.77,1.82,2.46,2.54c1.3-4.34,2.25-6.57,2.7-7.52c0.86-2.52,2.82-5.17,5.98-5.52
		c1.72-0.19,4.1,0.25,6.29,3.09c2.73-11.8,9.01-34.15,9.32-35.26c1.44-4.65,3.75-6.8,6.92-6.49c4.62,0.44,5.19,5.58,5.38,7.26
		c0.52,4.65,5.64,41.26,8.61,62.37c1.81-7.21,3.55-14.25,3.87-15.56c0.76-3.36,2.6-7.8,7.82-9.37c2.56-0.77,4.4-2.24,6.33-5.09
		c2.27-3.34,3.57-5.44,3.6-5.49c0.33-0.62,2.87-4.94,7.37-4.94c0.01,0,0.02,0,0.03,0c2.04,0.01,3.63,0.3,6.51,4.04
		c3.48,4.51,5.11,5.45,9.85,10.04l0,10.12c-4.43-1.52-7.98-5.26-7.98-5.26s-7-7.31-7.45-7.93c-0.62-0.85-0.98-0.19-0.98-0.19
		c-0.66,1.02-1.81,3.38-2.96,5.06c-3.17,4.66-6.79,7.49-11.54,8.91C96.39,56.43,95.75,59.02,95.75,59.02z M40.26,57.08
		c0.07,0.07,0.1,0.12,0.11,0.13C40.33,57.16,40.3,57.12,40.26,57.08z M56.7,51.58l0.01,0.01C56.7,51.59,56.7,51.59,56.7,51.58z"/>
</g>
</svg>
