<svg version="1.2" xmlns="http://www.w3.org/2000/svg" viewBox="0 0 1455 1163" width="1455" height="1163">
	<title>EYE_BIG copy-svg</title>
	<style>
		.s0 { fill: #ffffff } 
	</style>
	<path id="path189" fill-rule="evenodd" class="s0" d="m195.7 265.9c40.7 0 62.9 9.2 62.9 25.9v89.2h-37.7v-92.2c0-8.2-15.1-11.1-25.2-11.1-10 0-25.1 2.9-25.1 11.1v91.9h-37.7v-114.5h34v3l13.2-3.3h14.6m183.3 0c40.6 0 62.8 9.2 62.8 25.9v88.8h-37.7v-37.7h-50.3v37.7h-37.7v-37.7h-12.5v-12h12.5v-39.3c0-16.8 22-25.9 62-25.9zm-0.9 11.6c-10.3 0-25.1 3.1-25.1 11.2v42.2h50.3v-42.2c0-8.1-14.9-11.2-25.2-11.2zm88-11.5h130.1v12.6h-45.9v102.7h-37.7v-102.7h-46.5zm162.4 0.6h37.2v114.5h-37.2zm229.4 57.2c0 58.1-57 58.1-75.4 58.1-18.3 0-74.7-0.1-74.7-58.1 0-57.9 56.4-57.9 74.7-57.9 75.4 0 75.4 43.6 75.4 57.9zm-75.4-46c-17.1 0-36.9 5.2-36.9 46 0 40.9 19.1 46.2 36.9 46.2 17.9 0 37.7-5.3 37.7-46.2 0-40.7-20.6-46-37.7-46zm172-11.9c40.7 0 62.8 9.2 62.8 25.9v89.1h-37.7v-92.1c0-8.2-15.1-11.1-25.1-11.1-10.1 0-25.2 2.9-25.2 11.1v91.9h-37.7v-114.6h34.7v3l12.6-3.2zm172.3 0c40.8 0 62.9 9.2 62.9 25.9v88.8h-37.7v-37.8h-50.3v37.8h-37.7v-37.8h-12.6v-11.9h12.6v-39.4c0-16.7 22.1-25.9 61.9-25.9zm-0.8 11.7c-10.5 0-25.2 3-25.2 11.2v42.1h50.3v-42.1c0-8.2-14.7-11.2-25.1-11.2zm223 91.1v12.5h-105.5v-114.5h37.7v102.6zm-1040.3 50.5h50.3l-100.6 460.6h-31l-100.6-460.6h56.1l62.8 299.3zm109.1 0h57.1v460.6h-57.1zm229.6-9.9l33.9 22.9-3.3 2.2c-48.5 34.9-75.4 73.3-75.4 108.5-0.1 7.7 0.5 15.3 1.8 22.9 1.2 7.6 3 15 5.5 22.2q3.8 10.9 9.3 21c3.7 6.7 7.9 13.1 12.7 19.1 15.2 21.7 40.3 63.4 40.3 96.4 0 80.5-62.7 133.8-109.8 166.8l-1.7 1.1-32.9-24.2 3.3-2.1c51.1-35.8 81.7-82.9 81.7-125.7 0-23.3-12.2-51.6-39.4-91.6-5.1-6.7-9.7-13.8-13.7-21.3-4-7.5-7.3-15.3-10-23.3-2.6-8.1-4.6-16.4-5.8-24.7-1.3-8.4-1.8-16.9-1.6-25.4 0-61.5 59.3-111.4 103.9-143.8zm93.2 9.9h57v460.6h-57zm355.5 230.4c0 156.9-39.1 233.2-119.7 233.2-80.6 0-119.7-76.3-119.7-233.2 0-156.9 39.1-233.3 119.7-233.3 80.7 0 119.7 76.4 119.7 233.3zm-119.7-201.2c-42.2 0-61.9 64-61.9 201.2 0 137.2 19.7 201.2 61.9 201.2 42.2 0 61.8-64 61.8-201.2 0-137.3-19.6-201.2-61.8-201.2zm273.5-32.2c87.3 0 99.8 62 99.8 99v364.6h-56.9v-375.8c0-44-28.3-55.6-42.9-55.6-14.6 0-42 11.6-42 55.6v375.8h-57.7v-460.8h52.1v13.8l20.2-14.5h2.8q3-0.4 5.9-0.8 3-0.4 6-0.6 3.1-0.3 6.1-0.4 3-0.2 6-0.2z"/>
	<path id="path191" fill-rule="evenodd" class="s0" d="m0 260.7q1.5-1 2.9-2.1c-1.9 1-2.9 1.5-2.9 1.5m1454.5 3.5c0 0-665.3-589.5-1451.6-5 50-26.1 733-369.1 1451.6 5zm0 638.3c0 0-708.2 385-1454.5-2.9 0 0 667 591 1454.5 2.9z"/>
</svg>